<?xml version="1.0" encoding="UTF-8" standalone="no"?>
<svg
   xmlns:dc="http://purl.org/dc/elements/1.1/"
   xmlns:cc="http://creativecommons.org/ns#"
   xmlns:rdf="http://www.w3.org/1999/02/22-rdf-syntax-ns#"
   xmlns:svg="http://www.w3.org/2000/svg"
   xmlns="http://www.w3.org/2000/svg"
   xmlns:xlink="http://www.w3.org/1999/xlink"
   xmlns:sodipodi="http://sodipodi.sourceforge.net/DTD/sodipodi-0.dtd"
   xmlns:inkscape="http://www.inkscape.org/namespaces/inkscape"
   sodipodi:docname="drawing.svg"
   inkscape:version="1.0 (4035a4fb49, 2020-05-01)"
   id="svg219"
   version="1.1"
   viewBox="0 0 1280 1280"
   height="338.66666mm"
   width="338.66666mm">
  <defs
     id="defs213">
    <linearGradient
       id="linearGradient867"
       inkscape:collect="always">
      <stop
         id="stop863"
         offset="0"
         style="stop-color:#000000;stop-opacity:1" />
      <stop
         id="stop865"
         offset="1"
         style="stop-color:#ff1a1a;stop-opacity:1" />
    </linearGradient>
    <linearGradient
       gradientUnits="userSpaceOnUse"
       y2="346.53186"
       x2="522.75391"
       y1="464.8125"
       x1="522.75391"
       id="linearGradient869"
       xlink:href="#linearGradient867"
       inkscape:collect="always" />
  </defs>
  <sodipodi:namedview
     inkscape:snap-smooth-nodes="true"
     inkscape:object-paths="true"
     inkscape:window-maximized="1"
     inkscape:window-y="-8"
     inkscape:window-x="-8"
     inkscape:window-height="1057"
     inkscape:window-width="1920"
     inkscape:showpageshadow="false"
     fit-margin-bottom="0"
     fit-margin-right="0"
     fit-margin-left="0"
     fit-margin-top="0"
     showgrid="false"
     inkscape:document-rotation="0"
     inkscape:current-layer="layer2"
     inkscape:document-units="px"
     inkscape:cy="424.345"
     inkscape:cx="661.93063"
     inkscape:zoom="1.979899"
     inkscape:pageshadow="2"
     inkscape:pageopacity="0"
     borderopacity="1.0"
     bordercolor="#666666"
     pagecolor="#262626"
     id="base" />
  <metadata
     id="metadata216">
    <rdf:RDF>
      <cc:Work
         rdf:about="">
        <dc:format>image/svg+xml</dc:format>
        <dc:type
           rdf:resource="http://purl.org/dc/dcmitype/StillImage" />
        <dc:title></dc:title>
      </cc:Work>
    </rdf:RDF>
  </metadata>
  <g
     transform="translate(260,77.14286)"
     id="layer1"
     inkscape:groupmode="layer"
     inkscape:label="Canvas"
     sodipodi:insensitive="true">
    <rect
       y="-77.14286"
       x="-260"
       height="1280"
       width="1280"
       id="rect2128"
       style="fill:#ffffff;stroke-width:1.5;stroke-linecap:round" />
  </g>
  <g
     inkscape:label="Contents"
     id="layer2"
     inkscape:groupmode="layer">
    <g
       id="g997">
      <rect
         style="fill:#1a1a1a;fill-opacity:1;fill-rule:evenodd;stroke:none;stroke-width:23.4375;stroke-linecap:round;opacity:0"
         id="rect873"
         width="151.52289"
         height="151.52289"
         x="446.99246"
         y="331.63211" />
      <path
         id="rect848"
         style="fill:url(#linearGradient869);fill-rule:evenodd;stroke-width:15;stroke-linecap:round;fill-opacity:1"
         sodipodi:type="inkscape:offset"
         inkscape:radius="-0.78918487"
         inkscape:original="M 484.16992 345.10156 C 482.73097 345.10156 467.70544 356.901 463.63867 361.22461 C 459.31123 365.82533 454.25391 372.95216 454.25391 374.44922 C 454.25391 374.93461 457.19413 372.58176 460.78711 369.2207 C 467.11768 363.29876 472.87247 359.64392 478.3457 358.07422 C 480.92414 357.33473 481.06899 357.53379 483.74414 365.45898 C 485.25594 369.93772 487.59867 375.79101 488.94922 378.4668 L 491.4043 383.33203 L 494.07812 380.82617 C 495.54928 379.44839 498.65494 377.36967 500.97852 376.20508 L 505.20312 374.08594 L 509.83203 378.52148 C 514.80696 383.28831 515.17395 386.60404 510.3457 383.16602 C 508.82297 382.08174 506.99897 380.49911 506.29297 379.64844 C 504.23712 377.17129 502.85422 377.77412 497.42969 383.50977 L 492.31641 388.91602 L 488.09766 382.25977 C 485.77763 378.59826 482.67977 372.76839 481.21289 369.30664 L 478.54492 363.01367 L 473.11328 367.43945 C 470.12537 369.87339 465.8023 374.29739 463.50781 377.27148 C 459.58357 382.35801 453.59975 393.77943 454.42578 394.60547 C 454.63286 394.81255 457.19917 391.91644 460.12891 388.16992 C 465.05501 381.8705 473.77606 374.08219 475.86328 374.11719 C 476.35336 374.12519 479.00391 377.74543 481.75391 382.16211 C 484.50391 386.57879 487.93575 391.32835 489.38086 392.7168 L 492.00977 395.24023 L 497.27734 389.67188 C 500.17451 386.6085 503.16291 384.10156 503.91992 384.10156 C 505.65179 384.10156 513.25391 389.07559 513.25391 390.20898 C 513.25391 391.12714 509.52882 389.91445 506.45703 387.99609 C 504.4499 386.74262 503.63745 387.42047 495.07227 397.49219 L 492.61328 400.38477 L 486.84375 394.49219 C 483.6696 391.25203 479.94557 386.68906 478.56836 384.35156 C 477.19115 382.01406 475.70913 380.10156 475.27539 380.10156 C 474.07371 380.10156 467.4522 387.71994 464.20898 392.83398 C 459.78067 399.8167 454.24961 419.4575 457.23047 417.61523 C 457.79345 417.26729 458.25391 416.52415 458.25391 415.96289 C 458.25391 414.26324 466.79889 397.6229 470.24023 392.62109 L 473.46289 387.9375 L 482.72266 397.01953 C 487.81617 402.01456 492.43533 406.10156 492.98633 406.10156 C 493.53733 406.10156 495.15759 404.33611 496.58594 402.17773 C 498.0143 400.01935 500.58724 396.65334 502.30469 394.69727 C 505.33485 391.24609 505.51222 391.18412 508.29102 392.62109 C 509.866 393.43554 511.85277 394.10156 512.70508 394.10156 C 513.55739 394.10156 514.25391 394.61353 514.25391 395.23828 C 514.25391 396.00941 512.80739 396.17492 509.75 395.75586 L 505.24609 395.13867 L 500.04492 402.62109 C 497.18432 406.73585 494.46572 410.10156 494.00195 410.10156 C 492.56263 410.10156 481.9184 403.04962 478.60547 399.90039 L 475.45898 396.90625 L 472.82422 400.75391 C 469.6126 405.44589 465.59374 418.20997 464.43945 427.38477 C 463.46442 435.13473 464.22855 435.04179 466.76172 427.10156 C 468.79932 420.7147 473.7801 410.20449 475.6875 408.26367 C 476.78351 407.14847 477.81699 407.50458 481.87891 410.39648 C 488.00471 414.75778 497.01371 419.31977 497.56836 418.3418 C 497.79921 417.93477 498.74848 415.27162 499.67773 412.42383 C 500.60697 409.57604 502.71207 405.38853 504.35742 403.11719 C 507.03074 399.42677 507.73341 399.02012 510.95117 399.29492 C 517.04126 399.81502 517.25087 402.01258 511.84375 408.65039 L 507.10938 414.46289 L 507.74609 425.5332 C 508.64639 441.19266 510.99711 459.2606 512.86133 464.84375 C 514.84937 470.79775 516.51106 472.74261 516.07227 468.60156 L 515.75391 465.60156 L 522.75391 465.60156 L 529.75391 465.60156 L 529.43555 468.60156 C 528.99676 472.74261 530.65844 470.79775 532.64648 464.84375 C 534.5107 459.2606 536.86142 441.19266 537.76172 425.5332 L 538.39844 414.46289 L 533.66406 408.65039 C 528.25694 402.01258 528.46655 399.81502 534.55664 399.29492 C 537.7744 399.02012 538.47707 399.42677 541.15039 403.11719 C 542.79574 405.38853 544.90084 409.57604 545.83008 412.42383 C 546.75933 415.27162 547.7086 417.93477 547.93945 418.3418 C 548.4941 419.31977 557.50311 414.75778 563.62891 410.39648 C 567.69083 407.50458 568.7243 407.14847 569.82031 408.26367 C 571.72771 410.20449 576.70849 420.7147 578.74609 427.10156 C 581.27926 435.04179 582.04339 435.13473 581.06836 427.38477 C 579.91407 418.20997 575.89521 405.44589 572.68359 400.75391 L 570.04883 396.90625 L 566.90234 399.90039 C 563.58941 403.04962 552.94518 410.10156 551.50586 410.10156 C 551.04209 410.10156 548.32349 406.73585 545.46289 402.62109 L 540.26172 395.13867 L 535.75781 395.75586 C 532.70042 396.17492 531.25391 396.00941 531.25391 395.23828 C 531.25391 394.61353 531.95042 394.10156 532.80273 394.10156 C 533.65504 394.10156 535.64182 393.43554 537.2168 392.62109 C 539.9956 391.18412 540.17296 391.24609 543.20312 394.69727 C 544.92057 396.65334 547.49352 400.01935 548.92188 402.17773 C 550.35023 404.33611 551.97048 406.10156 552.52148 406.10156 C 553.07248 406.10156 557.69165 402.01456 562.78516 397.01953 L 572.04492 387.9375 L 575.26758 392.62109 C 578.70892 397.6229 587.25391 414.26324 587.25391 415.96289 C 587.25391 416.52415 587.71436 417.26729 588.27734 417.61523 C 591.2582 419.4575 585.72714 399.8167 581.29883 392.83398 C 578.05561 387.71994 571.4341 380.10156 570.23242 380.10156 C 569.79868 380.10156 568.31666 382.01406 566.93945 384.35156 C 565.56224 386.68906 561.83821 391.25203 558.66406 394.49219 L 552.89453 400.38477 L 550.43555 397.49219 C 541.87037 387.42047 541.05791 386.74262 539.05078 387.99609 C 535.97899 389.91445 532.25391 391.12714 532.25391 390.20898 C 532.25391 389.07559 539.85602 384.10156 541.58789 384.10156 C 542.3449 384.10156 545.3333 386.6085 548.23047 389.67188 L 553.49805 395.24023 L 556.12695 392.7168 C 557.57206 391.32835 561.00391 386.57879 563.75391 382.16211 C 566.50391 377.74543 569.15445 374.1254 569.64453 374.11719 C 571.73175 374.08219 580.45281 381.8705 585.37891 388.16992 C 588.30865 391.91644 590.87495 394.81255 591.08203 394.60547 C 591.90806 393.77943 585.92424 382.35801 582 377.27148 C 579.70551 374.29739 575.38244 369.87339 572.39453 367.43945 L 566.96289 363.01367 L 564.29492 369.30664 C 562.82804 372.76839 559.73019 378.59826 557.41016 382.25977 L 553.19141 388.91602 L 548.07812 383.50977 C 542.65359 377.77412 541.27069 377.17129 539.21484 379.64844 C 538.50884 380.49911 536.68484 382.08174 535.16211 383.16602 C 530.33386 386.60404 530.70085 383.28831 535.67578 378.52148 L 540.30469 374.08594 L 544.5293 376.20508 C 546.85288 377.36967 549.95853 379.44839 551.42969 380.82617 L 554.10352 383.33203 L 556.55859 378.4668 C 557.90914 375.79101 560.25187 369.93772 561.76367 365.45898 C 564.43882 357.53379 564.58367 357.33473 567.16211 358.07422 C 572.63534 359.64392 578.39013 363.29876 584.7207 369.2207 C 588.31368 372.58176 591.25391 374.93461 591.25391 374.44922 C 591.25391 372.95216 586.19658 365.82533 581.86914 361.22461 C 577.80237 356.901 562.77684 345.10156 561.33789 345.10156 C 560.92918 345.10156 559.84225 348.58906 558.92383 352.85156 C 558.0054 357.11406 556.09783 364.36224 554.68359 368.95898 L 552.11133 377.31641 L 549.93359 375.33789 C 545.67943 371.47312 539.11055 367.71474 538.42578 368.75391 C 538.05577 369.31542 536.22675 372.12431 534.36133 374.99609 C 531.80896 378.92541 530.69539 379.92566 529.86133 379.03516 C 529.04666 378.16536 529.08511 377.72947 530.00391 377.39258 C 530.69141 377.14049 531.25391 376.44602 531.25391 375.84766 C 531.25391 374.40614 528.22136 371.10156 526.89844 371.10156 C 526.25786 371.10156 526.31911 371.5652 527.05469 372.30078 C 529.43178 374.67787 528.22843 375.60156 522.75391 375.60156 C 517.27939 375.60156 516.07605 374.67787 518.45312 372.30078 C 519.18872 371.5652 519.24995 371.10156 518.60938 371.10156 C 517.28646 371.10156 514.25391 374.40614 514.25391 375.84766 C 514.25391 376.44602 514.81641 377.14049 515.50391 377.39258 C 516.42271 377.72947 516.46115 378.16536 515.64648 379.03516 C 514.81242 379.92566 513.69885 378.92541 511.14648 374.99609 C 509.28106 372.12431 507.45204 369.31542 507.08203 368.75391 C 506.39726 367.71474 499.82838 371.47312 495.57422 375.33789 L 493.39648 377.31641 L 490.82422 368.95898 C 489.40998 364.36224 487.50241 357.11406 486.58398 352.85156 C 485.66556 348.58906 484.57863 345.10156 484.16992 345.10156 z "
         d="m 483.87891,346.05859 c -0.13091,0.0676 -0.25243,0.12855 -0.4336,0.23633 -0.52714,0.31361 -1.23861,0.78305 -2.0664,1.36328 -1.65558,1.16047 -3.78779,2.76514 -6.00196,4.50391 -4.42833,3.47754 -9.21753,7.53405 -11.16406,9.60351 -2.1295,2.26399 -4.46198,5.17728 -6.24609,7.69141 -0.74792,1.05395 -1.32166,1.96277 -1.82032,2.79297 1.12266,-0.92048 2.49913,-2.10647 4.10157,-3.60547 6.38651,-5.97428 12.23649,-9.70934 17.88086,-11.32812 0.65551,-0.188 1.21252,-0.35893 1.84375,-0.30079 0.63123,0.0582 1.24416,0.44734 1.67382,1.03516 0.85932,1.17564 1.50739,3.19146 2.84571,7.15625 1.49942,4.44208 3.85474,10.31407 5.16211,12.9043 l 1.98047,3.92383 1.90429,-1.78516 c 1.58656,-1.48585 4.67788,-3.54307 7.08594,-4.75 l 4.22461,-2.11914 a 0.78926379,0.78926379 0 0 1 0.90039,0.13476 l 4.62891,4.43555 c 1.27323,1.21998 2.25853,2.35303 2.95507,3.33399 0.69655,0.98095 1.12787,1.76266 1.21485,2.54882 0.0435,0.39309 -0.0339,0.89616 -0.41406,1.22657 -0.38018,0.3304 -0.8578,0.34829 -1.26758,0.27734 -0.81957,-0.1419 -1.72648,-0.63777 -2.97852,-1.5293 -1.57574,-1.12202 -3.37772,-2.6617 -4.20312,-3.65625 -0.47615,-0.57372 -0.87039,-0.89688 -1.17578,-1.01953 -0.3054,-0.12265 -0.56336,-0.13103 -1.07032,0.0899 -1.01391,0.44175 -2.7368,1.97655 -5.43554,4.83007 l -5.11329,5.40625 a 0.78926379,0.78926379 0 0 1 -1.24023,-0.12109 l -4.21875,-6.65625 c -2.35274,-3.71313 -5.44689,-9.53021 -6.94531,-13.06641 l -2.25781,-5.32617 -4.61719,3.76172 c -2.91385,2.37361 -7.24567,6.80894 -9.47852,9.70313 -1.90612,2.47068 -4.38159,6.58603 -6.24804,10.14843 -0.82782,1.58001 -1.46558,2.9614 -1.95704,4.12891 0.99142,-1.13259 2.2223,-2.61134 3.58008,-4.34766 2.50505,-3.20341 5.93651,-6.74349 9.02735,-9.5039 1.54542,-1.38021 3.0028,-2.56356 4.23242,-3.41602 0.61481,-0.42623 1.17097,-0.76937 1.67187,-1.01758 0.5009,-0.2482 0.9267,-0.42653 1.4375,-0.41797 0.54108,0.009 0.61485,0.21142 0.78516,0.35938 0.17031,0.14796 0.33935,0.32658 0.5332,0.54688 0.3877,0.44058 0.86013,1.04461 1.40235,1.78515 1.08444,1.48108 2.44217,3.50183 3.82617,5.72461 1.36423,2.19105 2.90277,4.47228 4.27344,6.36914 1.37026,1.8963 2.60686,3.43384 3.23046,4.0332 l 2.05469,1.97266 4.7207,-4.99023 c 1.46782,-1.55203 2.95637,-2.9603 4.19141,-3.9961 0.61752,-0.5179 1.16889,-0.94167 1.64258,-1.25195 0.47369,-0.31028 0.75798,-0.56836 1.38281,-0.56836 0.81073,0 1.55195,0.37629 2.54492,0.87891 0.99298,0.50261 2.12399,1.17281 3.20313,1.8789 1.07913,0.70609 2.10263,1.44528 2.88086,2.10352 0.38911,0.32911 0.7167,0.63543 0.97265,0.93164 0.25596,0.29621 0.52149,0.52072 0.52149,1.10351 0,0.38159 -0.31474,0.81803 -0.61719,0.96094 -0.30245,0.14291 -0.56214,0.14849 -0.83008,0.13867 -0.53587,-0.0196 -1.13493,-0.16562 -1.83203,-0.39257 -1.39419,-0.4539 -3.13052,-1.25448 -4.72461,-2.25 -0.45439,-0.28377 -0.68369,-0.3682 -0.93164,-0.34571 -0.24795,0.0225 -0.67376,0.19503 -1.3789,0.78321 -1.41029,1.17634 -3.77442,3.86725 -8.05469,8.90039 l -2.45899,2.89257 a 0.78926379,0.78926379 0 0 1 -1.16601,0.041 l -5.76953,-5.89258 c -3.21741,-3.28431 -6.92558,-7.80639 -8.39063,-10.29297 -0.67354,-1.14318 -1.37679,-2.18424 -1.94531,-2.91797 -0.28426,-0.36686 -0.53702,-0.65873 -0.71484,-0.83203 -0.0208,-0.0203 -0.0244,-0.0202 -0.043,-0.0371 -0.0346,0.0186 0.019,0.002 -0.13477,0.11328 -0.25553,0.18448 -0.60882,0.48464 -1.01367,0.86719 -0.80971,0.7651 -1.83971,1.86448 -2.93359,3.12305 -2.18778,2.51713 -4.64208,5.68594 -6.22852,8.1875 -2.11451,3.33424 -4.62478,9.99144 -6.17383,15.49219 -0.77452,2.75037 -1.31526,5.23296 -1.47461,6.83203 -0.038,0.38145 -7.4e-4,0.46993 0.006,0.73242 0.071,-0.13685 0.23242,-0.30331 0.23242,-0.34961 0,-0.54309 0.17565,-0.91544 0.42578,-1.56836 0.25014,-0.65292 0.6017,-1.47238 1.03321,-2.41992 0.86301,-1.89509 2.04272,-4.29772 3.33008,-6.80469 2.57471,-5.01394 5.55651,-10.40979 7.33593,-12.99609 l 3.22266,-4.6836 a 0.78926379,0.78926379 0 0 1 1.20312,-0.11523 l 9.25977,9.08203 c 2.53843,2.48935 4.95882,4.75146 6.80469,6.38477 0.92293,0.81665 1.70358,1.47803 2.27148,1.92187 0.28395,0.22192 0.51817,0.38946 0.67188,0.48828 0.003,0.002 0.003,0.002 0.006,0.004 0.0155,-0.0103 -0.0571,0.0111 0.0605,-0.082 0.19972,-0.15809 0.47764,-0.42264 0.78516,-0.75781 0.61504,-0.67036 1.3597,-1.62659 2.05273,-2.67383 1.46068,-2.20721 4.02743,-5.56669 5.78321,-7.56641 1.51857,-1.72957 2.30583,-2.70855 3.42187,-3.0957 0.55802,-0.19358 1.15859,-0.15202 1.71289,0.0215 0.5543,0.1735 1.1088,0.45648 1.8086,0.81836 0.74518,0.38535 1.60521,0.74318 2.36523,0.99805 0.76003,0.25487 1.46496,0.39453 1.68555,0.39453 0.58417,0 1.12642,0.16756 1.56054,0.48633 0.43413,0.31876 0.77735,0.83379 0.77735,1.43945 0,0.43952 -0.28702,0.90502 -0.63672,1.12891 -0.3497,0.22389 -0.72926,0.30901 -1.16797,0.35937 -0.87742,0.10073 -2.03657,0.0242 -3.5957,-0.18945 l -4.02539,-0.55078 -4.92383,7.08594 c -1.43962,2.07078 -2.84278,3.95118 -3.95508,5.32812 -0.55615,0.68847 -1.03753,1.24987 -1.42969,1.6582 -0.19607,0.20417 -0.36791,0.36966 -0.53711,0.50586 -0.16919,0.13621 -0.23428,0.32617 -0.76953,0.32617 -0.50213,10e-6 -0.79793,-0.16616 -1.26757,-0.38085 -0.46965,-0.2147 -1.02953,-0.51085 -1.66797,-0.87305 -1.27689,-0.72441 -2.85739,-1.71116 -4.4961,-2.79688 -3.27742,-2.17143 -6.75864,-4.70445 -8.50781,-6.36718 a 0.78926379,0.78926379 0 0 1 -0.002,0 l -2.47461,-2.35547 -2.11133,3.08203 c -1.50407,2.19735 -3.32353,6.54161 -4.86133,11.42578 -1.53779,4.88417 -2.82198,10.3376 -3.39062,14.85742 -0.12631,1.00391 -0.14025,1.49293 -0.20704,2.22461 0.31069,-0.85661 0.58897,-1.57567 0.99415,-2.8457 1.03729,-3.2514 2.80007,-7.48893 4.55078,-11.1836 0.87535,-1.84733 1.74698,-3.55581 2.52734,-4.9375 0.78036,-1.38168 1.43102,-2.41258 2.03711,-3.02929 0.33218,-0.338 0.73309,-0.63405 1.23047,-0.75782 0.49738,-0.12376 1.02884,-0.0583 1.57226,0.12891 1.08685,0.37441 2.36395,1.21646 4.40821,2.67188 3.0199,2.15004 6.78476,4.36993 9.83398,5.91406 1.52461,0.77206 2.87529,1.37487 3.83594,1.71289 0.44477,0.1565 0.78127,0.24063 1,0.27539 0.0464,-0.10739 0.0573,-0.12497 0.12305,-0.29492 0.1319,-0.34087 0.29868,-0.7962 0.48828,-1.32813 0.37919,-1.06384 0.848,-2.43599 1.31054,-3.85351 0.96751,-2.96505 3.06294,-7.13984 4.79102,-9.52539 1.34785,-1.86066 2.22398,-2.97271 3.33594,-3.61719 1.11196,-0.64448 2.31627,-0.66992 3.96289,-0.5293 1.56909,0.134 2.79751,0.36541 3.74609,0.82422 0.94859,0.45882 1.63569,1.27805 1.73047,2.27149 0.0948,0.99343 -0.28114,2.02876 -0.96484,3.24414 -0.6837,1.21537 -1.7074,2.62286 -3.07422,4.30078 l -4.54102,5.57422 0.61914,10.76562 c 0.44889,7.8078 1.26081,16.22498 2.19141,23.37695 0.9306,7.15197 2.00209,13.085 2.88477,15.72852 0.63014,1.88724 1.20004,3.18021 1.67773,4.13477 -0.003,-0.0258 0.003,-0.0167 0,-0.043 l -0.31836,-3 a 0.78926379,0.78926379 0 0 1 0.78516,-0.87305 h 7 7 a 0.78926379,0.78926379 0 0 1 0.78515,0.87305 l -0.31836,3 c -0.003,0.0263 0.003,0.0171 0,0.043 0.47769,-0.95456 1.04759,-2.24753 1.67774,-4.13477 0.88267,-2.64352 1.95416,-8.57655 2.88476,-15.72852 0.9306,-7.15197 1.74252,-15.56915 2.19141,-23.37695 l 0.61914,-10.76562 -4.54102,-5.57422 c -1.36682,-1.67792 -2.39051,-3.08541 -3.07421,-4.30078 -0.68371,-1.21538 -1.05962,-2.25071 -0.96485,-3.24414 0.0948,-0.99344 0.78189,-1.81267 1.73047,-2.27149 0.94858,-0.45881 2.17701,-0.69022 3.74609,-0.82422 1.64662,-0.14062 2.85094,-0.11518 3.96289,0.5293 1.11196,0.64448 1.98809,1.75653 3.33594,3.61719 1.72809,2.38555 3.82352,6.56034 4.79102,9.52539 0.46254,1.41752 0.93135,2.78967 1.31054,3.85351 0.1896,0.53193 0.35639,0.98726 0.48829,1.32813 0.0658,0.16995 0.0766,0.18753 0.12304,0.29492 0.21874,-0.0348 0.55523,-0.11889 1,-0.27539 0.96065,-0.33802 2.31133,-0.94083 3.83594,-1.71289 3.04922,-1.54413 6.81408,-3.76402 9.83399,-5.91406 2.04425,-1.45542 3.32135,-2.29747 4.4082,-2.67188 0.54342,-0.1872 1.07488,-0.25267 1.57226,-0.12891 0.49738,0.12377 0.89829,0.41982 1.23047,0.75782 0.60609,0.61671 1.25675,1.64761 2.03711,3.02929 0.78036,1.38169 1.65199,3.09017 2.52735,4.9375 1.75071,3.69467 3.51348,7.9322 4.55078,11.1836 0.40517,1.27003 0.68345,1.98909 0.99414,2.8457 -0.0668,-0.73168 -0.0807,-1.2207 -0.20703,-2.22461 -0.56865,-4.51982 -1.85283,-9.97325 -3.39063,-14.85742 -1.53779,-4.88417 -3.35726,-9.22843 -4.86133,-11.42578 l -2.11132,-3.08203 -2.47461,2.35547 a 0.78926379,0.78926379 0 0 1 -0.002,0 c -1.74917,1.66273 -5.23039,4.19575 -8.50781,6.36718 -1.63871,1.08572 -3.21921,2.07247 -4.49609,2.79688 -0.63845,0.3622 -1.19832,0.65835 -1.66797,0.87305 -0.46965,0.21469 -0.76545,0.38086 -1.26758,0.38085 -0.53525,0 -0.60033,-0.18996 -0.76953,-0.32617 -0.1692,-0.1362 -0.34103,-0.30169 -0.53711,-0.50586 -0.39216,-0.40833 -0.87354,-0.96973 -1.42969,-1.6582 -1.1123,-1.37694 -2.51546,-3.25734 -3.95508,-5.32812 l -4.92383,-7.08594 -4.02539,0.55078 c -1.55913,0.2137 -2.71828,0.29018 -3.5957,0.18945 -0.43871,-0.0504 -0.81827,-0.13548 -1.16797,-0.35937 -0.3497,-0.22389 -0.63672,-0.6894 -0.63672,-1.12891 0,-0.60565 0.34322,-1.12068 0.77735,-1.43945 0.43412,-0.31877 0.97637,-0.48633 1.56054,-0.48633 0.2206,0 0.92552,-0.13966 1.68555,-0.39453 0.76003,-0.25487 1.62005,-0.6127 2.36524,-0.99805 0.69979,-0.36188 1.25429,-0.64486 1.80859,-0.81836 0.5543,-0.1735 1.15487,-0.21506 1.71289,-0.0215 1.11604,0.38715 1.9033,1.36613 3.42188,3.0957 1.75577,1.99972 4.32252,5.3592 5.7832,7.56641 0.69303,1.04724 1.43769,2.00347 2.05273,2.67383 0.30752,0.33517 0.58545,0.59972 0.78516,0.75781 0.11766,0.0931 0.045,0.0717 0.0606,0.082 0.003,-0.002 0.003,-0.002 0.006,-0.004 0.1537,-0.0988 0.38792,-0.26636 0.67187,-0.48828 0.5679,-0.44384 1.34855,-1.10522 2.27148,-1.92187 1.84587,-1.63331 4.26626,-3.89542 6.80469,-6.38477 l 9.25977,-9.08203 a 0.78926379,0.78926379 0 0 1 1.20312,0.11523 l 3.22266,4.6836 c 1.77942,2.5863 4.76122,7.98215 7.33594,12.99609 1.28736,2.50697 2.46706,4.9096 3.33007,6.80469 0.43151,0.94754 0.78307,1.767 1.03321,2.41992 0.25013,0.65292 0.42578,1.02527 0.42578,1.56836 0,0.0463 0.1614,0.21276 0.23242,0.34961 0.007,-0.26249 0.0439,-0.35097 0.006,-0.73242 -0.15935,-1.59907 -0.70008,-4.08166 -1.47461,-6.83203 -1.54905,-5.50075 -4.05931,-12.15795 -6.17383,-15.49219 -1.58644,-2.50156 -4.04074,-5.67037 -6.22851,-8.1875 -1.09389,-1.25857 -2.12389,-2.35795 -2.9336,-3.12305 -0.40485,-0.38255 -0.75814,-0.68271 -1.01367,-0.86719 -0.15375,-0.11099 -0.1002,-0.0946 -0.13476,-0.11328 -0.0186,0.0169 -0.0221,0.0168 -0.043,0.0371 -0.17783,0.1733 -0.43059,0.46517 -0.71485,0.83203 -0.56852,0.73373 -1.27177,1.77479 -1.94531,2.91797 -1.46504,2.48658 -5.17322,7.00866 -8.39062,10.29297 l -5.76954,5.89258 a 0.78926379,0.78926379 0 0 1 -1.16601,-0.041 l -2.45899,-2.89257 c -4.28027,-5.03314 -6.6444,-7.72405 -8.05468,-8.90039 -0.70515,-0.58818 -1.13096,-0.76072 -1.37891,-0.78321 -0.24795,-0.0225 -0.47725,0.0619 -0.93164,0.34571 -1.59409,0.99552 -3.33042,1.7961 -4.72461,2.25 -0.6971,0.22695 -1.29616,0.37295 -1.83203,0.39257 -0.26794,0.01 -0.52763,0.004 -0.83008,-0.13867 -0.30245,-0.14291 -0.61719,-0.57935 -0.61719,-0.96094 0,-0.58278 0.26553,-0.8073 0.52149,-1.10351 0.25595,-0.29621 0.58354,-0.60253 0.97265,-0.93164 0.77823,-0.65824 1.80173,-1.39743 2.88086,-2.10352 1.07914,-0.70609 2.21016,-1.37629 3.20313,-1.8789 0.99297,-0.50262 1.73419,-0.87891 2.54492,-0.87891 0.62484,0 0.90912,0.25808 1.38281,0.56836 0.4737,0.31028 1.02506,0.73405 1.64258,1.25195 1.23504,1.0358 2.72359,2.44407 4.19141,3.9961 l 4.7207,4.99023 2.05469,-1.97266 c 0.6236,-0.59936 1.8602,-2.1369 3.23047,-4.0332 1.37066,-1.89686 2.9092,-4.17809 4.27343,-6.36914 1.384,-2.22279 2.74174,-4.24356 3.82618,-5.72461 0.54221,-0.74052 1.01465,-1.34457 1.40234,-1.78515 0.19384,-0.2203 0.36292,-0.39892 0.5332,-0.54688 0.17029,-0.14796 0.24428,-0.35031 0.78516,-0.35938 0.5108,-0.009 0.9366,0.16977 1.4375,0.41797 0.5009,0.24821 1.05706,0.59135 1.67187,1.01758 1.22962,0.85246 2.68701,2.03581 4.23243,3.41602 3.09084,2.76041 6.5223,6.30049 9.02734,9.5039 1.35778,1.73632 2.58866,3.21507 3.58008,4.34766 -0.49145,-1.16751 -1.12922,-2.5489 -1.95703,-4.12891 -1.86646,-3.5624 -4.34193,-7.67775 -6.24805,-10.14843 -2.23285,-2.89419 -6.56466,-7.32952 -9.47852,-9.70313 l -4.61718,-3.76172 -2.25782,5.32617 c -1.49842,3.5362 -4.59257,9.35327 -6.94531,13.06641 l -4.21875,6.65625 a 0.78926379,0.78926379 0 0 1 -1.24023,0.12109 l -5.11328,-5.40625 c -2.69875,-2.85352 -4.42164,-4.38832 -5.43555,-4.83007 -0.50696,-0.22088 -0.76491,-0.2125 -1.07031,-0.0899 -0.3054,0.12265 -0.69964,0.44581 -1.17578,1.01953 -0.82541,0.99455 -2.62739,2.53423 -4.20313,3.65625 -1.25204,0.89153 -2.15895,1.3874 -2.97852,1.5293 -0.40978,0.0709 -0.88739,0.0531 -1.26757,-0.27734 -0.38018,-0.33041 -0.45755,-0.83348 -0.41407,-1.22657 0.087,-0.78616 0.51831,-1.56787 1.21485,-2.54882 0.69654,-0.98096 1.68184,-2.11401 2.95508,-3.33399 l 4.6289,-4.43555 a 0.78926379,0.78926379 0 0 1 0.90039,-0.13476 l 4.22461,2.11914 c 2.40806,1.20693 5.49939,3.26415 7.08594,4.75 l 1.9043,1.78516 1.98047,-3.92383 c 1.30736,-2.59023 3.66268,-8.46222 5.1621,-12.9043 1.33832,-3.96479 1.98639,-5.98061 2.84571,-7.15625 0.42966,-0.58782 1.0426,-0.97701 1.67383,-1.03516 0.63123,-0.0581 1.18823,0.11279 1.84375,0.30079 5.64436,1.61878 11.49434,5.35384 17.88086,11.32812 1.60243,1.499 2.9789,2.68499 4.10156,3.60547 -0.49866,-0.8302 -1.0724,-1.73902 -1.82031,-2.79297 -1.78412,-2.51413 -4.11659,-5.42742 -6.2461,-7.69141 -1.94653,-2.06946 -6.73573,-6.12597 -11.16406,-9.60351 -2.21417,-1.73877 -4.34637,-3.34344 -6.00195,-4.50391 -0.82779,-0.58023 -1.53927,-1.04967 -2.06641,-1.36328 -0.18117,-0.10778 -0.30269,-0.16871 -0.43359,-0.23633 -0.15083,0.34514 -0.34281,0.88087 -0.55274,1.55469 -0.42724,1.37135 -0.92582,3.29239 -1.38086,5.4043 -0.92702,4.30237 -2.83366,11.54487 -4.25781,16.17383 l -2.57227,8.35742 a 0.78926379,0.78926379 0 0 1 -1.28515,0.35156 l -2.17774,-1.97851 c -2.07168,-1.88206 -4.748,-3.76767 -6.95312,-5.0293 -1.10256,-0.63082 -2.09509,-1.10741 -2.79102,-1.3457 -0.32443,-0.1111 -0.56451,-0.15479 -0.69922,-0.16602 -0.43785,0.66644 -2.12813,3.26244 -3.93554,6.04492 -1.28808,1.98298 -2.20103,3.24084 -3.0293,3.98438 -0.41413,0.37177 -0.82902,0.64766 -1.34766,0.70703 -0.51863,0.0594 -1.04252,-0.2026 -1.36132,-0.54297 -0.45654,-0.48743 -0.85049,-0.92363 -0.78907,-1.62891 0.0307,-0.35263 0.24038,-0.68193 0.47266,-0.8789 0.23228,-0.19698 0.484,-0.31152 0.76367,-0.41407 0.3783,-0.13871 0.73242,-0.70092 0.73242,-0.80468 0,-0.0837 -0.11435,-0.49417 -0.38281,-0.94532 -0.26845,-0.45115 -0.66178,-0.96695 -1.0918,-1.43554 -0.1457,-0.15877 -0.29225,-0.25512 -0.44335,-0.40039 0.094,0.16883 0.30149,0.33053 0.35937,0.50976 0.20825,0.64484 -0.0317,1.47467 -0.57617,1.89258 -0.5445,0.41791 -1.23858,0.59955 -2.14649,0.73242 -0.90791,0.13287 -2.03886,0.18946 -3.42968,0.18945 -1.39083,10e-6 -2.52178,-0.0566 -3.42969,-0.18945 -0.90791,-0.13287 -1.60198,-0.31451 -2.14649,-0.73242 -0.5445,-0.41791 -0.78442,-1.24774 -0.57617,-1.89258 0.0579,-0.17923 0.26539,-0.34093 0.35938,-0.50976 -0.15111,0.14527 -0.29766,0.24162 -0.44336,0.40039 -0.43002,0.46859 -0.82334,0.98439 -1.0918,1.43554 -0.26845,0.45115 -0.38281,0.86164 -0.38281,0.94532 0,0.10376 0.35413,0.66597 0.73242,0.80468 0.27967,0.10255 0.5314,0.21709 0.76367,0.41407 0.23228,0.19697 0.44195,0.52627 0.47266,0.8789 0.0614,0.70528 -0.33253,1.14148 -0.78906,1.62891 -0.3188,0.34037 -0.8427,0.60234 -1.36133,0.54297 -0.51863,-0.0594 -0.93352,-0.33526 -1.34766,-0.70703 -0.82826,-0.74354 -1.74121,-2.0014 -3.02929,-3.98438 -1.80742,-2.78248 -3.49769,-5.37848 -3.93555,-6.04492 -0.13471,0.0112 -0.37479,0.0549 -0.69922,0.16602 -0.69592,0.23829 -1.68846,0.71488 -2.79102,1.3457 -2.20512,1.26163 -4.88144,3.14724 -6.95312,5.0293 l -2.17774,1.97851 a 0.78926379,0.78926379 0 0 1 -1.28515,-0.35156 l -2.57227,-8.35742 c -1.42415,-4.62896 -3.33079,-11.87146 -4.25781,-16.17383 -0.45504,-2.11191 -0.95362,-4.03295 -1.38086,-5.4043 -0.20992,-0.67382 -0.40191,-1.20955 -0.55273,-1.55469 z" />
    </g>
  </g>
  <inkscape:templateinfo>
    <inkscape:name>Dark Canvas</inkscape:name>
    <inkscape:date>2020-07-13</inkscape:date>
  </inkscape:templateinfo>
  <inkscape:templateinfo>
    <inkscape:name>Dark Background</inkscape:name>
    <inkscape:date>2020-07-14</inkscape:date>
  </inkscape:templateinfo>
</svg>
